<svg xmlns="http://www.w3.org/2000/svg" width="32" height="32" viewBox="0 0 250 250" fill="none">
  <path d="m10 27.36v5.63c35.22-0.1 69.85 10.44 97.83 24.96l15.96 3.45c-20.81-14.34-58.71-33.58-113.8-34.04z" fill="url(#f0)"/>
  <path d="m10 39.88v27.1c21.12 3.31 39.91 9.8 56.62 20.26l5.62 2.6c-0.1-2.96 0.46-7.48 4.97-12.03 5-4.52 12.5-7.68 18.39-9.73-24.96-16.3-55.45-28.19-85.6-28.2z" fill="url(#f1)"/>
  <path d="m243 27.36v40.21c-24.24 4.44-48.16 13.73-72.59 31.31l-5.31 4.73c-8.94-4.74-18.02-7.17-28.68-10.34 25.55-22.99 63.47-50.04 106.6-61.53v-4.38z" fill="url(#f2)"/>
  <path d="m243 44.09v23.48c-21.66 3.45-45.2 12.54-66.92 27.87 15.97-20.38 38.1-37.82 66.92-51.35z" fill="url(#f3)"/>
  <path d="m10 72.24v17.87c28.88 6.93 57.01 19.82 80.95 45.74-19.34 7.65-48.27 16.2-80.95 24.19v-87.8z" fill="url(#f4)"/>
  <path d="m10 114.8v45.34c16.74-5.12 29.41-8.57 48.41-14.5-12.58-11.3-30.27-23.52-48.41-30.84z" fill="url(#f5)"/>
  <path d="m242.8 72.67v43.58c-24.47 11.77-43.8 28.48-61.94 48.06h-35.92c19.99-12.38 36.89-23.62 36.77-38.83-0.07-8.42-5.8-14.75-11.61-18.72 17.53-13.64 42.2-26.65 72.7-34.09z" fill="url(#f6)"/>
  <path d="m242.8 90.79v25.7c-23.72 10.67-44.83 28.73-61.52 47.82h61.52v-73.52z" fill="url(#f7)"/>
  <path d="m10.62 33.15v-5.64c38.76 0.06 76.55 13.22 113.1 33.47-9.91 1.46-21.37 4.31-30.93 7.42-23.77-15.43-52.73-31.34-82.14-35.25z" fill="url(#f8)"/>
  <path d="m10.12 42.04v24.74c23.29 3.62 36.94 10.24 62.59 23.06-0.6-4.52 0.41-8.87 7.01-14.02 5-3.71 11.09-5.81 15.89-7.61-19.69-13.07-48.35-26.92-85.49-26.17z" fill="url(#f9)"/>
  <path d="m243 27.36c-39.03 2.96-70.64 17.91-109.8 42.8-8.39 5.68-23.03 8.91-22.88 13.5 0.08 2.96 9.89 5.95 25.96 9.35 10.22 2.35 20.09 5.31 28.87 10.27 21.99-18.66 45.8-30.12 77.62-36.08l0.23-39.84z" fill="url(#f10)"/>
  <path d="m10.99 72.28c25.26 3.81 47.29 13.19 63.72 22.88 8.1 5.7 14.47 9.88 25.45 14.25 7.67 3.2 16.46 7.25 16.16 12.37-0.41 5.9-18.09 12.63-26.38 15.18-22.03-21.81-48.72-36.9-79.94-46.85l0.99-17.83z" fill="url(#f11)"/>
  <path d="m12.63 164.3h120.6c19.7-10.84 42.7-22.6 42.14-39.33-0.68-21.6-31.64-25.24-55.18-31.14-7.26-1.98-14.76-4.63-14.66-9.92 0.1-6.67 16.85-12.15 26.1-18.51-14.83 2.6-40.34 7.15-51.12 18.01-4.57 4.69-3.43 11.4 6.76 17.49 9.86 6.15 17.03 6.51 28.71 13.52 5 3.49 7.16 9.48 3.23 13.43-12.81 13.3-50.63 22.81-106.6 36.45z" fill="url(#f12)"/>
  <path d="m85.11 163.9c25.51-8.7 61.98-23.08 61.66-40.64-0.21-11.2-15.89-17.02-40.76-26.42-9.4-3.6-14.24-7.97-12.84-12.55 2.9-9.67 22.06-13.08 33.64-18.02-15.4 2.77-33.01 7.9-42.58 14.74-5.95 4.34-7.17 11.28 1.48 16.73 9.9 6.91 17.64 8.41 29.21 15.45 5.49 3.65 7.79 10.07 3.09 14.49-10.96 10.32-31.5 17.22-104.8 36.22h71.92z" fill="url(#f13)"/>
  <path d="m44.86 211.4h-23.46l-4.14 10.31h-10.9l20.85-47.44h12.03l22.23 47.44h-12.35l-4.26-10.31zm-3.67-8.9-8.04-17.44-8.13 17.44h16.17z" fill="url(#f14)"/>
  <path d="m64.41 174h10.88v47.67h-10.88v-47.67z" fill="url(#f15)"/>
  <path d="m132.9 211.1h-7.43v10.57h-9.99v-10.57h-25.35v-8.07l21.61-28.94h11.44l-19.98 28.34h12.71v-8.91h9.56v8.91h7.43v8.67z" fill="url(#f16)"/>
  <path d="m152.7 183.5h-14.59v-9.24h41.44v9.24h-14.84v38.2h-12.01v-38.2z" fill="url(#f17)"/>
  <path d="m213 221.7-8.18-13.77h-10.15v13.77h-10.95v-47.44h19.92c12 0 21.4 6.5 21.4 17.19 0 7.09-3.95 11.89-10.04 14.64l11.52 15.61h-13.52zm-18.33-22.48h8.64c6.5 0 9.98-3.59 9.98-8.08 0-5.03-3.61-7.89-9.69-7.89h-8.93v15.97z" fill="url(#f18)"/>
  <path d="m232 174h10.88v47.67h-10.88v-47.67z" fill="url(#f19)"/>
  <defs>
    <linearGradient id="f0" x1="66.89" x2="66.89" y1="27.36" y2="61.4" gradientUnits="userSpaceOnUse"><stop stop-color="#D7B05A"/><stop stop-color="#F2D36C" offset=".509"/><stop stop-color="#F2D36C" offset="1"/></linearGradient>
    <linearGradient id="f1" x1="52.8" x2="52.8" y1="39.88" y2="91.14" gradientUnits="userSpaceOnUse"><stop stop-color="#CBA554"/><stop stop-color="#B17F37" offset="1"/></linearGradient>
    <linearGradient id="f2" x1="189.7" x2="189.7" y1="27.36" y2="103.6" gradientUnits="userSpaceOnUse"><stop stop-color="#D7B05A"/><stop stop-color="#F2D36C" offset=".509"/><stop stop-color="#D19D3B" offset="1"/></linearGradient>
    <linearGradient id="f3" x1="209.5" x2="209.5" y1="44.09" y2="95.44" gradientUnits="userSpaceOnUse"><stop stop-color="#CBA554"/><stop stop-color="#B17F37" offset="1"/></linearGradient>
    <linearGradient id="f4" x1="50.48" x2="50.48" y1="72.24" y2="160" gradientUnits="userSpaceOnUse"><stop stop-color="#CCB449"/><stop stop-color="#496F3D" offset="1"/></linearGradient>
    <linearGradient id="f5" x1="34.2" x2="34.2" y1="114.8" y2="160.1" gradientUnits="userSpaceOnUse"><stop stop-color="#5A7C3E"/><stop stop-color="#3F6A3C" offset="1"/></linearGradient>
    <linearGradient id="f6" x1="193.8" x2="193.8" y1="72.67" y2="164.3" gradientUnits="userSpaceOnUse"><stop stop-color="#CCB449"/><stop stop-color="#496F3D" offset="1"/></linearGradient>
    <linearGradient id="f7" x1="212" x2="212" y1="90.79" y2="164.3" gradientUnits="userSpaceOnUse"><stop stop-color="#969649"/><stop stop-color="#3F6A3C" offset="1"/></linearGradient>
    <linearGradient id="f8" x1="67.16" x2="67.16" y1="27.51" y2="68.4" gradientUnits="userSpaceOnUse"><stop stop-color="#D7B05A"/><stop stop-color="#F2D36C" offset=".509"/><stop stop-color="#F2D36C" stop-opacity=".75" offset="1"/></linearGradient>
    <linearGradient id="f9" x1="52.86" x2="52.86" y1="41.95" y2="89.84" gradientUnits="userSpaceOnUse"><stop stop-color="#C29B4D"/><stop stop-color="#B17F37" offset="1"/></linearGradient>
    <linearGradient id="f10" x1="176.6" x2="176.6" y1="27.36" y2="103.3" gradientUnits="userSpaceOnUse"><stop stop-color="#D7B05A"/><stop stop-color="#F2D36C" offset=".509"/><stop stop-color="#D19D3B" offset="1"/></linearGradient>
    <linearGradient id="f11" x1="50.33" x2="50.33" y1="72.28" y2="137" gradientUnits="userSpaceOnUse"><stop stop-color="#CCB449"/><stop stop-color="#7C8A47" offset="1"/></linearGradient>
    <linearGradient id="f12" x1="94.21" x2="94.21" y1="65.41" y2="164.3" gradientUnits="userSpaceOnUse"><stop stop-color="#28A8CC"/><stop stop-color="#1A587A" offset=".509"/><stop stop-color="#0D3456" offset="1"/></linearGradient>
    <linearGradient id="f13" x1="99.87" x2="99.87" y1="66.24" y2="163.9" gradientUnits="userSpaceOnUse"><stop stop-color="#3DB6D3"/><stop stop-color="#2A8198" offset=".509"/><stop stop-color="#0D3456" offset="1"/></linearGradient>
    <linearGradient id="f14" x1="33.91" x2="33.91" y1="174.2" y2="221.7" gradientUnits="userSpaceOnUse"><stop stop-color="#2A7B95"/><stop stop-color="#0D3456" offset="1"/></linearGradient>
    <linearGradient id="f15" x1="69.85" x2="69.85" y1="174" y2="221.7" gradientUnits="userSpaceOnUse"><stop stop-color="#2A7B95"/><stop stop-color="#0D3456" offset="1"/></linearGradient>
    <linearGradient id="f16" x1="111.5" x2="111.5" y1="174.1" y2="221.7" gradientUnits="userSpaceOnUse"><stop stop-color="#2A7B95"/><stop stop-color="#0D3456" offset="1"/></linearGradient>
    <linearGradient id="f17" x1="158.8" x2="158.8" y1="174.2" y2="221.7" gradientUnits="userSpaceOnUse"><stop stop-color="#2A7B95"/><stop stop-color="#0D3456" offset="1"/></linearGradient>
    <linearGradient id="f18" x1="204.6" x2="204.6" y1="174.2" y2="221.7" gradientUnits="userSpaceOnUse"><stop stop-color="#2A7B95"/><stop stop-color="#0D3456" offset="1"/></linearGradient>
    <linearGradient id="f19" x1="237.4" x2="237.4" y1="174" y2="221.7" gradientUnits="userSpaceOnUse"><stop stop-color="#2A7B95"/><stop stop-color="#0D3456" offset="1"/></linearGradient>
  </defs>
</svg>
